<?xml version="1.0" encoding="UTF-8" standalone="no"?>
<!-- Created with Inkscape (http://www.inkscape.org/) -->

<svg
   xmlns:dc="http://purl.org/dc/elements/1.1/"
   xmlns:cc="http://creativecommons.org/ns#"
   xmlns:rdf="http://www.w3.org/1999/02/22-rdf-syntax-ns#"
   xmlns:svg="http://www.w3.org/2000/svg"
   xmlns="http://www.w3.org/2000/svg"
   xmlns:sodipodi="http://sodipodi.sourceforge.net/DTD/sodipodi-0.dtd"
   xmlns:inkscape="http://www.inkscape.org/namespaces/inkscape"
   width="128"
   height="128"
   viewBox="0 0 128 128"
   id="svg4944"
   version="1.1"
   inkscape:version="0.91 r13725"
   sodipodi:docname="favicon.svg"
   inkscape:export-filename="/home/felix/rect5501.png"
   inkscape:export-xdpi="89.650002"
   inkscape:export-ydpi="89.650002">
  <defs
     id="defs4946" />
  <sodipodi:namedview
     id="base"
     pagecolor="#ffffff"
     bordercolor="#666666"
     borderopacity="1.0"
     inkscape:pageopacity="0.0"
     inkscape:pageshadow="2"
     inkscape:zoom="3.959798"
     inkscape:cx="102.07085"
     inkscape:cy="63.700785"
     inkscape:document-units="px"
     inkscape:current-layer="layer1"
     showgrid="false"
     units="px"
     inkscape:window-width="1871"
     inkscape:window-height="1056"
     inkscape:window-x="49"
     inkscape:window-y="24"
     inkscape:window-maximized="1" />
  <metadata
     id="metadata4949">
    <rdf:RDF>
      <cc:Work
         rdf:about="">
        <dc:format>image/svg+xml</dc:format>
        <dc:type
           rdf:resource="http://purl.org/dc/dcmitype/StillImage" />
        <dc:title></dc:title>
      </cc:Work>
    </rdf:RDF>
  </metadata>
  <g
     inkscape:label="レイヤー 1"
     inkscape:groupmode="layer"
     id="layer1"
     transform="translate(0,-924.36216)">
    <rect
       style="fill:#f04155;fill-opacity:1;stroke:#80b3ff;stroke-width:0.5;stroke-miterlimit:4;stroke-dasharray:none;stroke-opacity:0.94117647"
       id="rect5501"
       width="128"
       height="128"
       x="0.50507629"
       y="924.07281"
       ry="6" />
    <path
       style="font-style:normal;font-weight:normal;font-size:45px;line-height:125%;font-family:sans-serif;letter-spacing:0px;word-spacing:0px;fill:#ffffff;fill-opacity:1;stroke:none;stroke-width:1px;stroke-linecap:butt;stroke-linejoin:miter;stroke-opacity:1"
       d="m 55.47978,945.69846 c -0.472718,-6e-4 -0.963136,0.0153 -1.475441,0.0485 -5.104436,0.33532 -10.097093,1.91882 -14.977976,4.75047 -6.818332,4.02394 -11.885508,10.805 -15.201527,20.34321 -3.353277,9.61275 -3.353277,17.34391 0,23.19352 1.602123,2.75714 6.147678,5.4584 13.636665,8.10374 3.092466,1.0805 5.193854,1.9375 6.311613,2.5709 2.384553,1.3786 3.822738,3.0738 4.3071,5.0858 0.52162,2.161 -0.149044,5.0485 -2.011966,8.6626 -0.968726,1.8629 -2.220616,3.4837 -3.74822,4.8622 -0.633398,0.5962 -1.378569,1.1737 -2.235519,1.7326 -0.409845,0.2608 -0.670656,0.4284 -0.782433,0.503 -0.263292,0.1463 -0.526587,0.2716 -0.789882,0.3949 -0.03768,0.013 -0.129376,0.048 -0.208648,0.078 -0.131361,0.011 -0.252458,0.03 -0.394942,0.03 -0.03726,0.037 -0.320424,0.037 -0.842044,0 -0.260811,0 -0.797336,-0.1118 -1.617027,-0.3353 -1.937449,-0.4472 -3.725864,-1.5835 -5.365244,-3.4092 -1.192277,-1.3413 -2.034322,-3.2601 -2.518684,-5.7564 -0.55888,-2.6827 -0.223553,-4.4711 1.005982,-5.3653 1.080502,-0.7824 1.564864,-1.3599 1.453088,-1.7325 -0.149044,-0.5216 -0.856949,-0.8011 -2.123742,-0.8383 -3.390538,-0.075 -6.199839,0.6893 -8.435357,2.2914 -2.123743,1.5648 -3.390537,3.2415 -3.800381,5.0299 -0.447106,1.8629 -0.245909,3.9494 0.611041,6.2594 1.490345,4.0239 4.605167,6.7252 9.337015,8.1038 4.843625,1.4158 10.730489,0.7451 17.660598,-2.012 5.51428,-2.1983 9.813927,-5.2721 12.906394,-9.2215 2.049226,-2.6081 3.316019,-5.328 3.800381,-8.1596 0.55888,-3.3906 -0.201195,-6.1477 -2.287679,-8.2714 -1.453088,-1.4904 -3.710962,-2.79448 -6.766172,-3.91224 -0.819689,-0.29807 -2.086484,-0.72653 -3.80038,-1.28541 -1.602123,-0.52162 -2.757141,-0.93146 -3.465054,-1.22953 -2.906175,-1.15502 -5.119338,-2.44045 -6.646942,-3.85628 -1.63938,-1.56486 -2.742236,-4.32199 -3.301116,-8.27142 -1.0805,-7.82431 0.968725,-15.96533 6.147675,-24.42304 2.272779,-3.72587 4.791463,-6.52026 7.548601,-8.38319 0.257669,-0.18409 0.642786,-0.42596 1.155019,-0.7191 0.255267,0.0485 0.513995,0.10186 0.856949,0.21611 0.07451,0.0372 0.372585,0.22354 0.894207,0.55887 0.372586,0.29806 0.670655,0.57752 0.894208,0.83833 0.633396,0.78242 1.132663,1.86293 1.505248,3.2415 0.633399,2.12374 0.782433,4.93677 0.447106,8.43907 -0.670657,7.19093 -2.570848,13.37586 -5.700574,18.55482 -0.484362,0.78242 0.111769,1.19228 1.788415,1.22953 1.0805,0.0746 2.071581,0.0191 2.965789,-0.16768 3.800381,-0.67065 6.147676,-1.73252 7.041883,-3.18561 2.45907,-4.09846 4.247484,-9.44508 5.365245,-16.03986 1.304053,-7.5635 0.596138,-12.92874 -2.123742,-16.09573 -1.369257,-1.63008 -3.710497,-2.44757 -7.01953,-2.45163 z m 55.40733,0.0297 c -0.77021,-0.0402 -1.80426,0.0605 -3.10365,0.29807 -1.67664,0.29807 -3.20424,0.7638 -4.58281,1.3972 -1.52761,0.70793 -2.3473,1.30406 -2.45907,1.78841 -1.080499,4.65734 -2.854011,11.60608 -5.31308,20.84623 -2.459072,9.24014 -4.225131,16.2075 -5.305631,20.90209 -3.539572,0.4471 -7.15366,1.08051 -10.842266,1.90019 1.117758,-5.43976 2.794399,-12.87285 5.029915,-22.2993 2.53359,-10.58144 4.247487,-17.99591 5.141694,-22.24341 0.298069,-1.3413 -1.289149,-1.69527 -4.754202,-1.06187 -1.639382,0.29807 -3.14463,0.7638 -4.5232,1.39721 -1.527606,0.70791 -2.347295,1.30405 -2.459071,1.78842 -0.931466,4.17296 -2.704978,11.79236 -5.313082,22.85817 -2.272777,9.64998 -3.986676,17.28801 -5.141694,22.91407 -0.745171,0.26079 -1.207179,0.40984 -1.393472,0.44709 -0.856949,0.29807 -1.736252,0.74519 -2.63046,1.34132 -1.378571,0.85694 -1.691543,1.52761 -0.94637,2.01195 0.931466,0.5589 2.310035,0.652 4.135708,0.2795 -1.751155,9.3146 -2.965787,17.8655 -3.636444,25.6525 -0.03726,0.3726 0.558881,0.5775 1.788415,0.6148 1.155019,0.075 2.49633,-0.037 4.023936,-0.3353 3.949415,-0.7452 5.983737,-1.9002 6.095513,-3.4651 0.670655,-7.8243 1.915094,-16.431 3.740769,-25.82022 1.117758,-0.26081 2.63046,-0.55888 4.530651,-0.8942 2.049224,-0.33535 4.09845,-0.59614 6.147676,-0.78244 -2.533588,11.51296 -4.046289,21.87086 -4.530651,31.07366 0,0.4099 0.618492,0.6334 1.848028,0.6707 1.155017,0.075 2.49633,-0.037 4.023934,-0.3353 3.986673,-0.7825 6.013544,-1.9561 6.088062,-3.521 0.447104,-8.5322 1.788415,-18.0331 4.023932,-28.50284 1.82567,-0.37258 3.45015,-1.00597 4.86598,-1.90018 0.96872,-0.59614 1.37857,-1.15502 1.22953,-1.67665 -0.14902,-0.5216 -0.78243,-0.80106 -1.90019,-0.83831 -0.93146,-0.0372 -2.01197,-0.0559 -3.2415,-0.0559 1.15502,-4.99266 2.98069,-12.18357 5.47702,-21.57274 2.6081,-9.76177 4.44868,-16.93407 5.52918,-21.51688 0.1863,-0.83831 -0.35943,-1.293 -1.6431,-1.35994 z m -61.689138,4.54555 c -0.03915,0.0196 -0.03127,0.0206 -0.04472,0.0298 -0.0063,0.002 -0.0124,0.002 -0.0187,0.004 0.03958,-0.0153 -7.44e-4,-0.0114 0.06333,-0.0336 z"
       id="flowRoot5492"
       inkscape:connector-curvature="0"
       sodipodi:nodetypes="sccccccccccccccccccccccccccccccccccccccccccccccccsscccsccccccccccccccccccccccccccsccccscccc" />
  </g>
</svg>
