<?xml version="1.0" encoding="UTF-8" standalone="no"?>
<!-- Created with Inkscape (http://www.inkscape.org/) -->

<svg
   xmlns:dc="http://purl.org/dc/elements/1.1/"
   xmlns:cc="http://creativecommons.org/ns#"
   xmlns:rdf="http://www.w3.org/1999/02/22-rdf-syntax-ns#"
   xmlns:svg="http://www.w3.org/2000/svg"
   xmlns="http://www.w3.org/2000/svg"
   xmlns:sodipodi="http://sodipodi.sourceforge.net/DTD/sodipodi-0.dtd"
   xmlns:inkscape="http://www.inkscape.org/namespaces/inkscape"
   width="250"
   height="70"
   viewBox="0 0 250 70.000001"
   id="svg2"
   version="1.1"
   inkscape:version="0.91 r13725"
   sodipodi:docname="logo.svg"
   inkscape:export-filename="/home/felix/projects/felixleong.com/content/images/logo.png"
   inkscape:export-xdpi="90"
   inkscape:export-ydpi="90">
  <defs
     id="defs4" />
  <sodipodi:namedview
     id="base"
     pagecolor="#ffffff"
     bordercolor="#666666"
     borderopacity="1.0"
     inkscape:pageopacity="0.0"
     inkscape:pageshadow="2"
     inkscape:zoom="3.959798"
     inkscape:cx="126.91539"
     inkscape:cy="19.737036"
     inkscape:document-units="px"
     inkscape:current-layer="layer1"
     showgrid="false"
     units="px"
     inkscape:window-width="1871"
     inkscape:window-height="1056"
     inkscape:window-x="49"
     inkscape:window-y="24"
     inkscape:window-maximized="1" />
  <metadata
     id="metadata7">
    <rdf:RDF>
      <cc:Work
         rdf:about="">
        <dc:format>image/svg+xml</dc:format>
        <dc:type
           rdf:resource="http://purl.org/dc/dcmitype/StillImage" />
        <dc:title></dc:title>
      </cc:Work>
    </rdf:RDF>
  </metadata>
  <g
     inkscape:label="レイヤー 1"
     inkscape:groupmode="layer"
     id="layer1"
     transform="translate(0,-982.36216)">
    <path
       style="font-style:normal;font-weight:normal;font-size:45px;line-height:125%;font-family:sans-serif;letter-spacing:0px;word-spacing:0px;fill:#f14055;fill-opacity:1;stroke:none;stroke-width:1px;stroke-linecap:butt;stroke-linejoin:miter;stroke-opacity:1"
       d="m 42.950891,988.46095 c -0.218547,0.012 -0.47776,0.0446 -0.778761,0.0991 -0.576386,0.10247 -1.102392,0.26214 -1.576308,0.47989 -0.512343,0.24337 -0.786446,0.4483 -0.824872,0.61481 -2.933162,11.56615 -4.82883,20.99325 -5.687004,28.28135 -0.03843,0.3458 0.58834,0.3791 1.882005,0.097 1.280857,-0.2818 2.0118,-0.6149 2.19112,-0.9991 0.128085,-0.2946 0.677999,-1.871 1.651451,-4.7273 0.973451,-2.8434 1.870051,-5.1746 2.689799,-6.9934 0.909409,-2.0494 1.736842,-3.5292 2.479739,-4.4386 0.102468,0.3202 0.171634,0.8718 0.21006,1.6531 0.03843,1.1401 -0.160533,3.1066 -0.596025,5.8988 -0.115277,0.807 -0.531129,2.3363 -1.248409,4.5906 -0.602002,1.9085 -0.909408,3.4592 -0.922216,4.6504 0,0.1408 0.210914,0.2237 0.633597,0.2494 0.397066,0.013 0.865859,-0.032 1.403819,-0.135 1.357708,-0.2818 2.043393,-0.684 2.056202,-1.2092 0.01281,-0.9221 0.491849,-2.9024 1.439683,-5.938 0.294597,-0.9222 0.570408,-2.221 0.826579,-3.8989 0.217746,-1.3961 0.365471,-2.5686 0.442323,-3.5164 0.115277,-1.473 0.05636,-2.6002 -0.174197,-3.38144 -0.320214,-1.10163 -1.280002,-1.53703 -2.881073,-1.30663 -1.280857,0.1794 -2.413988,0.6012 -3.400248,1.26733 -0.730089,0.49954 -1.415774,1.19124 -2.056202,2.07504 0.768514,-3.54807 1.799177,-7.86372 3.092842,-12.94868 0.08646,-0.34583 -0.198266,-0.50055 -0.853904,-0.46452 z m 58.436109,0.34327 c -0.39712,0 -0.92905,0.0999 -1.595088,0.31765 -0.51234,0.16651 -0.94186,0.35779 -1.28769,0.57553 -0.37145,0.23055 -0.51747,0.42354 -0.44062,0.57724 0.62763,1.16557 0.76766,2.39517 0.42183,3.68883 -0.32022,1.21682 -1.0059,2.26117 -2.056204,3.13216 -0.32022,0.26895 -0.2946,0.45425 0.0769,0.55675 0.28179,0.09 0.577244,0.1212 0.884644,0.096 1.16559,-0.1024 2.08012,-0.4296 2.746168,-0.98025 1.17838,-0.97344 1.97422,-2.13219 2.38409,-3.47711 0.4483,-1.46014 0.33217,-2.83751 -0.34669,-4.13118 -0.12808,-0.23056 -0.39017,-0.35522 -0.7873,-0.35522 z m -27.746357,2.21163 c -0.216944,0.012 -0.47413,0.0446 -0.771929,0.0991 -0.576386,0.10247 -1.100683,0.26386 -1.5746,0.4816 -0.525151,0.24333 -0.80694,0.44829 -0.845366,0.61478 -0.371448,1.6011 -0.980282,3.9894 -1.825648,7.1659 -0.845365,3.17667 -1.454199,5.57097 -1.825647,7.18487 -1.216814,0.1537 -2.458392,0.3723 -3.72644,0.6541 0.384257,-1.8701 0.959789,-4.4258 1.728303,-7.66647 0.870983,-3.63761 1.460177,-6.18561 1.767583,-7.64575 0.102468,-0.46113 -0.441469,-0.58324 -1.632666,-0.36549 -0.563577,0.10247 -1.081897,0.26213 -1.555814,0.47986 -0.525152,0.24334 -0.80694,0.4483 -0.845365,0.61479 -0.320214,1.43461 -0.929048,4.0535 -1.825648,7.85776 -0.781323,3.3173 -1.370517,5.9439 -1.767583,7.878 -0.256171,0.09 -0.415851,0.141 -0.479894,0.1537 -0.294597,0.1025 -0.596025,0.2562 -0.903431,0.4612 -0.473917,0.2946 -0.582363,0.5252 -0.326192,0.6917 0.320214,0.1921 0.793278,0.2236 1.420897,0.096 -0.602002,3.2021 -1.017854,6.1421 -1.248408,8.8191 -0.01281,0.1281 0.192129,0.1989 0.614811,0.2118 0.397066,0.025 0.858174,-0.014 1.383325,-0.1161 1.357709,-0.2562 2.055349,-0.6524 2.093775,-1.1904 0.230553,-2.6898 0.660067,-5.6494 1.287688,-8.8772 0.384257,-0.09 0.902576,-0.1921 1.555814,-0.3074 0.704471,-0.1153 1.409796,-0.2041 2.114267,-0.2681 -0.870982,3.9579 -1.389303,7.5186 -1.555814,10.6823 0,0.1409 0.210914,0.2178 0.633597,0.2306 0.397066,0.025 0.858174,-0.014 1.383325,-0.1161 1.370517,-0.2691 2.068158,-0.673 2.093774,-1.2109 0.153704,-2.9332 0.614811,-6.1985 1.383326,-9.7977 0.62762,-0.1281 1.185219,-0.3467 1.671945,-0.6541 0.333022,-0.2049 0.473063,-0.3962 0.421829,-0.5755 -0.05123,-0.1793 -0.268127,-0.2759 -0.652383,-0.2886 -0.320215,-0.013 -0.692517,-0.018 -1.1152,-0.018 0.397066,-1.7163 1.02554,-4.1892 1.883713,-7.41707 0.8966,-3.3558 1.529344,-5.82099 1.900793,-7.39647 0.07685,-0.34582 -0.209901,-0.50055 -0.860737,-0.46452 z m -54.5135,-0.2308 c -1.754774,0.11527 -3.471122,0.6592 -5.149044,1.63267 -2.343968,1.38329 -4.0859336,3.71441 -5.2258956,6.99336 -1.152771,3.30472 -1.152771,5.96282 0,7.97392 0.550768,0.9477 2.1134136,1.876 4.6879356,2.7854 1.063111,0.3714 1.786368,0.6669 2.170625,0.8846 0.819748,0.4739 1.312452,1.0571 1.478963,1.7488 0.17932,0.7429 -0.05123,1.7343 -0.691663,2.9767 -0.333022,0.6404 -0.760829,1.198 -1.28598,1.6719 -0.217745,0.205 -0.473917,0.4039 -0.768514,0.5961 -0.140894,0.09 -0.231408,0.1468 -0.269834,0.1724 -0.08903,0.05 -0.177392,0.091 -0.266418,0.1333 -0.01267,0 -0.04796,0.018 -0.07685,0.029 -0.04528,0 -0.0875,0.01 -0.136625,0.01 -0.01281,0.013 -0.1093,0.013 -0.28862,0 -0.08966,0 -0.274957,-0.038 -0.556746,-0.1144 -0.666045,-0.1536 -1.280857,-0.5439 -1.844433,-1.1715 -0.409874,-0.4612 -0.697641,-1.1212 -0.864151,-1.9794 -0.1921286,-0.9222 -0.07771,-1.537 0.344977,-1.8445 0.371448,-0.2689 0.537106,-0.4679 0.49868,-0.596 -0.05123,-0.1793 -0.293743,-0.2757 -0.729235,-0.2886 -1.1655786,-0.025 -2.1330526,0.2383 -2.9015676,0.7891 -0.7300879,0.5379 -1.1655789,1.1134 -1.3064729,1.7282 -0.153703,0.6405 -0.08283,1.3578 0.211768,2.1519 0.512343,1.3833 1.5822859,2.3115 3.2089739,2.7854 1.6651126,0.4868 3.6888676,0.2562 6.0712606,-0.6916 1.895668,-0.7558 3.375484,-1.8121 4.438596,-3.1697 0.704471,-0.8967 1.138254,-1.8308 1.304765,-2.8042 0.192129,-1.1656 -0.07002,-2.1135 -0.787299,-2.8436 -0.499534,-0.5123 -1.274026,-0.9615 -2.324329,-1.3457 -0.281788,-0.1025 -0.717279,-0.2502 -1.306473,-0.4423 -0.550769,-0.1794 -0.946981,-0.3194 -1.190343,-0.4218 -0.999068,-0.3971 -1.761606,-0.8386 -2.286757,-1.3254 -0.563577,-0.5379 -0.941856,-1.4858 -1.133985,-2.8434 -0.371448,-2.6899 0.332169,-5.48982 2.11256,-8.39731 0.781323,-1.2809 1.646327,-2.24064 2.594162,-2.88104 0.0885,-0.063 0.223774,-0.14533 0.399627,-0.24597 0.0872,0.0166 0.175273,0.035 0.292035,0.0734 0.02562,0.0131 0.128086,0.0761 0.307406,0.19123 0.128085,0.10247 0.230554,0.199 0.307406,0.28863 0.217745,0.26897 0.391088,0.63962 0.519174,1.11355 0.217745,0.73003 0.26898,1.69755 0.153703,2.90149 -0.230555,2.47205 -0.884646,4.59832 -1.960566,6.37872 -0.16651,0.269 0.03843,0.4108 0.614812,0.4236 0.371448,0.025 0.712156,0.01 1.019562,-0.058 1.306473,-0.2305 2.11256,-0.5952 2.419965,-1.0947 0.845366,-1.4089 1.188077,-3.01327 1.572334,-5.28027 0.448299,-2.60021 0.477891,-4.67882 -0.457134,-5.76753 -0.53796,-0.64043 -1.511411,-0.91624 -2.920354,-0.82657 z m -1.653159,1.55581 c -0.05123,0.0254 -0.03757,0.0254 0.03928,0 -0.0204,0.009 -0.04108,0.009 -0.06148,0.0105 0.01355,-0.009 4.46e-4,0 0.0222,-0.0105 z m 74.977753,0.42715 c -0.525146,0.0516 -1.05713,0.17338 -1.595094,0.36549 -0.333015,0.11524 -0.640427,0.26127 -0.922211,0.4406 -0.461114,0.29459 -0.563576,0.52517 -0.307403,0.69165 0.550766,0.37145 1.019557,0.74971 1.403811,1.13401 0.128091,0.1281 0.473067,0.16736 1.036643,0.11612 0.525155,-0.0516 1.057139,-0.17331 1.595095,-0.3655 1.16558,-0.40983 1.57546,-0.78809 1.22962,-1.13392 -0.38425,-0.3843 -0.85134,-0.76256 -1.40211,-1.134 -0.192126,-0.11524 -0.538816,-0.15284 -1.038351,-0.11445 z m -60.064331,5.92137 c -0.526552,-0.019 -1.133665,0.034 -1.820524,0.1588 -1.703539,0.3074 -3.061248,0.96148 -4.073124,1.96062 -0.691663,0.6789 -1.312452,1.6266 -1.86322,2.8434 -0.858174,1.4987 -1.510557,3.7017 -1.958857,6.6093 -0.243363,1.6779 -0.359494,3.1697 -0.346685,4.4762 0,2.1262 0.666045,3.3558 1.998136,3.6888 0.870983,0.2178 2.086943,0.064 3.649588,-0.4611 0.935026,-0.3074 1.839311,-0.8197 2.710293,-1.537 1.511411,-1.2424 2.297602,-2.9174 2.57939,-4.5825 0.07685,-0.4612 -0.356676,-0.3684 -1.522256,-0.1635 -0.576386,0.1024 -1.096413,0.2621 -1.557522,0.4799 -0.53796,0.2561 -0.819748,0.4688 -0.845365,0.6353 -0.17932,1.0503 -0.666046,2.075 -1.460177,3.0741 -0.17932,0.2177 -0.409874,0.4483 -0.691663,0.6916 -0.243363,-0.2178 -0.442322,-0.6217 -0.596025,-1.2108 -0.166512,-0.6404 -0.217746,-1.6651 -0.153703,-3.0741 0.07685,-1.268 0.2186,-2.4148 0.423536,-3.4395 0.576386,-0.064 1.36454,-0.096 2.363609,-0.096 1.293665,0.013 2.081819,0.013 2.363607,0 0.435491,-0.013 0.965766,-0.1288 1.593386,-0.3467 0.781323,-0.2945 1.216814,-0.5687 1.306474,-0.8248 0.742897,-2.1775 1.050303,-4.0219 0.922216,-5.5333 -0.07685,-1.1528 -0.427806,-2.0374 -1.055425,-2.65232 -0.43229,-0.4322 -1.088101,-0.6647 -1.965689,-0.6967 z m 71.596194,-0.087 c -1.53963,0.045 -2.93744,0.4823 -4.192668,1.31158 -1.56264,1.02474 -2.43363,2.38844 -2.61295,4.09204 -0.12809,1.0502 0.21092,2.197 1.01786,3.4394 0.26898,0.3971 0.64725,0.9095 1.13398,1.5371 0.58919,0.7301 0.959788,1.2031 1.113488,1.4209 2.0878,2.9203 2.40289,5.0209 0.94272,6.3018 -0.0389,0.032 -0.0877,0.061 -0.13151,0.092 -0.49328,-0.071 -1.04249,-0.3317 -1.654858,-0.8027 -0.62763,-0.474 -0.99993,-1.0692 -1.1152,-1.7864 -0.11528,-0.6917 0.0247,-1.3774 0.42182,-2.0562 0.15371,-0.269 -0.0512,-0.4167 -0.61481,-0.4423 -0.37145,-0.013 -0.71045,0.013 -1.01785,0.077 -1.319294,0.2306 -2.125374,0.5969 -2.419974,1.0964 -0.80694,1.3833 -0.74973,2.6505 0.17249,3.8033 0.85817,1.0759 2.139034,1.6711 3.842574,1.7864 2.100598,0.1409 4.130338,-0.5252 6.090048,-1.9982 1.07592,-0.8069 1.57631,-1.8495 1.49946,-3.1304 -0.064,-0.8838 -0.5448,-2.0049 -1.4414,-3.3627 0.064,0.1025 -0.71643,-0.9615 -2.34311,-3.1901 -0.84536,-1.1656 -1.31416,-2.2023 -1.40382,-3.1117 -0.12808,-1.3193 0.28948,-2.4404 1.25012,-3.3627 0.61972,0.1178 1.06939,0.4366 1.32526,0.9803 0.40987,0.8454 -0.0197,2.1579 -1.28769,3.9382 -0.17932,0.2562 0.0256,0.398 0.61481,0.4236 0.40987,0.025 0.74887,0.012 1.01786,-0.039 1.24243,-0.2305 2.05022,-0.6011 2.42167,-1.1135 1.03749,-1.4602 1.5302,-2.7154 1.47896,-3.7657 -0.0256,-0.7301 -0.44744,-1.28172 -1.26719,-1.65312 -0.60201,-0.2818 -1.32697,-0.4415 -2.17234,-0.48 -0.22575,-0.01 -0.66775,-0.2251 -0.66775,-0.01 z m -10.715525,0.079 c -0.213746,0.012 -0.466876,0.045 -0.758269,0.099 -0.576386,0.1025 -1.100684,0.2622 -1.574599,0.4799 -0.525155,0.2433 -0.800966,0.4483 -0.826577,0.61478 -0.512345,2.81794 -1.19205,5.82884 -2.037418,9.03094 -0.358643,1.3321 -0.78047,2.8179 -1.267195,4.4574 -0.666047,2.2415 -0.941858,3.6445 -0.826578,4.208 0.08966,0.4355 0.812911,0.4791 2.170624,0.1333 1.370514,-0.3459 2.010941,-0.7558 1.92128,-1.2297 -0.102462,-0.5123 0.153711,-1.7932 0.768517,-3.8425 0.435494,-1.4731 0.859027,-2.9588 1.268901,-4.4575 0.832558,-3.138 1.510557,-6.1472 2.035717,-9.02912 0.0576,-0.3459 -0.23318,-0.5006 -0.874403,-0.4646 z m -13.669311,0.061 c -0.371448,-0.013 -0.710448,0.013 -1.017854,0.077 -1.319283,0.2306 -2.127076,0.5952 -2.421673,1.09468 -3.150907,5.34124 -4.629016,11.25874 -4.436888,17.75274 0.07685,0.1537 0.197252,0.2365 0.363763,0.2493 1.998137,0.2306 3.836593,-0.3962 5.514516,-1.882 1.127154,-1.0118 2.331155,-2.6138 3.612018,-4.804 0.128082,-0.2178 0.275811,-0.4739 0.442323,-0.7685 -0.140901,0.666 -0.755708,3.2593 -1.844438,7.7807 -0.102471,0.4739 0.447447,0.602 1.651449,0.3842 0.563585,-0.1024 1.081899,-0.2681 1.555814,-0.4986 0.525154,-0.2434 0.808652,-0.4483 0.847073,-0.6148 2.074999,-8.7098 3.233743,-14.8324 3.477106,-18.36752 0.02562,-0.3459 -0.608835,-0.3774 -1.902499,-0.096 -1.306482,0.2817 -2.02974,0.6207 -2.170632,1.01782 -0.550766,1.4986 -2.337989,5.0201 -5.360809,10.5662 -0.691662,1.2937 -1.369662,2.4286 -2.035708,3.4019 0.26898,-5.4435 1.715494,-10.3953 4.341251,-14.85272 0.166511,-0.269 -0.03839,-0.415 -0.614812,-0.4407 z m -49.434925,1.77662 c 0.05123,0.025 0.116131,0.063 0.192982,0.1144 0.512343,0.3842 0.825726,1.1724 0.941003,2.3636 0.140894,1.0375 -0.02647,2.4404 -0.500387,4.208 -1.485795,0.038 -2.715417,0.1273 -3.688868,0.2681 0.153703,-0.73 0.31509,-1.4217 0.481602,-2.0749 0.371449,-0.9606 0.805232,-1.9597 1.304766,-2.9972 0.243363,-0.4739 0.519174,-0.9274 0.82658,-1.3628 0.102469,-0.1537 0.230554,-0.3075 0.384257,-0.4612 -0.03843,0.025 -0.01878,0.01 0.05807,-0.058 z"
       id="flowRoot4145"
       inkscape:connector-curvature="0"
       sodipodi:nodetypes="sccccccccccccccccccccccccssccccccccccsscccsccccccccccccccccccccccccccsccccsccccccccccccccccccccccccccccccccccccccccccccccccccccccscccccsccssccccscccccccccccccccccssscccccccccccccccccccccccccccssccccccccccsccccccccccccccccccccccccccccccccccccc" />
    <path
       sodipodi:nodetypes="ccccccccscsccccccccccccccccccsccccccscccsssccccccccccccccsssccccccsccccccccccccccssccccccccccccccccccccccccccccssccccccccccccccccccccccccccccccccccscccccccccccccccccccccccccccccccccccccccccc"
       inkscape:connector-curvature="0"
       id="path4214"
       d="m 231.26568,987.39838 c -0.32065,0.0203 -0.7043,0.0744 -1.15297,0.16382 -2.03039,0.39619 -3.17128,0.97215 -3.42507,1.72517 -1.88537,5.54786 -3.58099,12.69023 -5.08566,21.42853 -2.41109,14.0682 -3.66316,21.3413 -3.7538,21.8169 -0.14503,0.7132 0.6357,0.8995 2.33977,0.5627 0.79767,-0.1585 1.53127,-0.4056 2.20201,-0.7423 0.74328,-0.3764 1.1421,-0.6936 1.19649,-0.9513 6.05491,-29.3251 9.0002,-43.74069 8.83703,-43.24535 0.19036,-0.56474 -0.19585,-0.81768 -1.1578,-0.75817 z m -107.00132,0.0162 c -0.56198,-0.0203 -1.2146,0.0501 -1.95787,0.20873 -1.93975,0.41606 -2.91627,1.04086 -2.93439,1.87301 -0.1813,5.62728 -0.80009,12.33368 -1.85154,20.12078 -1.21459,8.7183 -2.08477,14.8608 -2.6105,18.4273 -0.81578,3.6261 -1.62189,6.6471 -2.41955,9.0645 -0.65262,2.0012 -1.34996,3.745 -2.09324,5.231 -0.27191,0.5349 -0.57042,1.0409 -0.89675,1.5164 -0.10882,-0.218 -0.21754,-0.4651 -0.32631,-0.7423 -0.74327,-1.9419 -0.81579,-3.8044 -0.21754,-5.5877 0.25379,-0.7331 -0.51848,-0.9219 -2.3132,-0.5655 -2.01227,0.3965 -3.14469,0.9605 -3.39848,1.6936 -0.58011,1.7238 -0.58011,3.626 0,5.7065 0.52572,1.9616 1.74154,2.9522 3.64503,2.9722 2.53798,0.039 4.75814,-0.8019 6.66161,-2.5257 0.90643,-0.8124 1.81285,-2.1413 2.71929,-3.984 1.23273,-2.4768 2.41229,-5.9734 3.53626,-10.491 0.41695,-1.6248 0.95839,-4.8533 1.62915,-9.688 2.24791,-14.7021 3.49153,-25.65153 3.7272,-32.84417 0,-0.21792 -0.30093,-0.34601 -0.89917,-0.38565 z m 11.55075,14.86062 c -0.6209,0.059 -1.37413,0.2576 -2.26244,0.5945 -0.70701,0.2575 -1.2702,0.5838 -1.68716,0.98 -0.79764,0.218 -1.45026,0.5166 -1.95788,0.8932 -1.26898,0.9707 -2.44612,2.9033 -3.53383,5.7962 -1.05147,2.7741 -1.89384,5.8651 -2.52833,9.2732 -0.68888,3.6258 -0.92575,6.6166 -0.70821,8.9745 0.23567,2.6947 1.19769,4.161 2.88364,4.3989 1.5953,0.2178 3.27158,-0.029 5.03004,-0.7425 1.68594,-0.6934 3.11688,-1.6842 4.29524,-2.9721 1.92162,-2.1003 3.45529,-5.054 4.59739,-8.8583 1.0877,-3.527 1.55664,-6.7857 1.4116,-9.7777 -0.19941,-4.0421 -1.55784,-6.8162 -4.0777,-8.3222 -0.35351,-0.2179 -0.84146,-0.2971 -1.46236,-0.2377 z m 79.20502,0.061 c -1.2435,0 -2.71972,0.3726 -4.4306,1.128 -3.77072,1.6446 -6.43682,4.0223 -7.99586,7.1332 -2.50174,5.0725 -3.67041,10.0656 -3.50726,14.9796 0.0725,2.873 0.75052,4.7659 2.03765,5.6776 0.59824,0.4358 1.69682,0.5335 3.29212,0.2957 1.48654,-0.2378 2.85343,-0.8322 4.1043,-1.7831 0.70701,-0.5352 1.42368,-1.218 2.14883,-2.0504 -0.21754,1.6249 -0.37104,3.1704 -0.46168,4.6367 -0.018,0.1981 0.27194,0.317 0.87018,0.3566 0.56197,0.02 1.2146,-0.05 1.95787,-0.2087 1.92162,-0.3963 2.909,-1.0184 2.96339,-1.8704 0.21755,-3.6063 1.14332,-9.0868 2.77489,-16.438 0.97893,-2.6354 1.51431,-5.2204 1.60496,-7.7567 0,-0.3963 -0.6079,-0.5153 -1.82253,-0.3567 -0.0544,-1.7436 -0.57286,-2.8531 -1.55178,-3.3287 -0.57786,-0.275 -1.23837,-0.4131 -1.98448,-0.4147 z m -28.05127,0.1744 c -0.18809,0 -0.40849,0.013 -0.6623,0.031 -0.67075,0.059 -1.23394,0.16 -1.68715,0.2987 -1.68595,0.4953 -2.57304,1.099 -2.66369,1.8124 -0.34444,2.5164 -1.26174,7.1436 -2.74827,13.8806 -1.28713,5.8056 -2.0461,10.4726 -2.28178,13.9995 -0.0361,0.5349 0.85929,0.5838 2.69028,0.1479 1.8491,-0.4162 2.87276,-0.9406 3.07217,-1.5746 2.28418,-6.836 4.05232,-11.6218 5.30318,-14.3563 1.30524,-2.8532 2.60204,-5.1331 3.88917,-6.8372 0.32632,-0.4357 0.68887,-0.8598 1.08771,-1.276 0.56198,2.7146 0.31664,7.2811 -0.7348,13.7009 -1.46841,8.9562 -2.60931,15.0379 -3.42509,18.2478 -0.18128,0.7331 0.59704,0.9219 2.33736,0.5654 0.79765,-0.1586 1.53126,-0.4055 2.20201,-0.7425 0.74327,-0.3764 1.14451,-0.6934 1.1989,-0.9511 0.81578,-3.2099 1.976,-9.4012 3.48067,-18.5753 0.54386,-3.3485 0.87862,-6.1345 1.00553,-8.3537 0.16316,-3.1505 -0.11004,-5.6867 -0.817,-7.6086 -0.18128,-0.4954 -0.96806,-0.5932 -2.36394,-0.2959 -3.19063,0.6539 -5.87364,2.1202 -8.04905,4.3986 -0.48948,0.5153 -0.96323,1.0795 -1.41644,1.6936 0.61637,-2.992 1.07925,-5.5864 1.38743,-7.7858 0.0273,-0.2674 -0.24065,-0.4089 -0.8049,-0.4199 z m 52.86072,0.084 c -2.17911,0.069 -4.15747,0.7461 -5.93406,2.0291 -2.21167,1.585 -3.44443,3.6945 -3.6982,6.33 -0.1813,1.6246 0.29851,3.3987 1.44061,5.3207 0.38067,0.6142 0.91608,1.4069 1.60496,2.3778 0.83391,1.1294 1.35843,1.8611 1.57597,2.1981 2.95495,4.5175 3.40091,7.7671 1.33426,9.7485 -0.055,0.05 -0.12413,0.095 -0.18613,0.1428 -0.69815,-0.1094 -1.47547,-0.5131 -2.34218,-1.2417 -0.88831,-0.7332 -1.41524,-1.6539 -1.57839,-2.7635 -0.16316,-1.0699 0.035,-2.1308 0.59702,-3.1808 0.21754,-0.4161 -0.0725,-0.6446 -0.87017,-0.6844 -0.52571,-0.02 -1.00553,0.02 -1.4406,0.1191 -1.86724,0.3567 -3.00812,0.9233 -3.42508,1.6961 -1.14209,2.14 -1.06112,4.1002 0.24414,5.8836 1.2146,1.6643 3.02745,2.585 5.43854,2.7635 2.97307,0.2179 5.84582,-0.8124 8.61948,-3.0911 1.52279,-1.2483 2.23101,-2.8612 2.12224,-4.8426 -0.0907,-1.3673 -0.77105,-3.1017 -2.04006,-5.2021 0.0906,0.1585 -1.01398,-1.4873 -3.31629,-4.935 -1.19649,-1.8031 -1.85998,-3.4068 -1.98689,-4.8136 -0.18128,-2.0409 0.40971,-3.7752 1.76935,-5.2018 0.87711,0.1822 1.51355,0.6753 1.87569,1.5164 0.5801,1.3078 -0.0278,3.3381 -1.82253,6.0922 -0.25379,0.3964 0.0363,0.6157 0.87017,0.6553 0.58012,0.039 1.05992,0.019 1.44062,-0.061 1.75846,-0.3567 2.90176,-0.9299 3.4275,-1.7226 1.4684,-2.2588 2.16574,-4.2007 2.09321,-5.8253 -0.0362,-1.1296 -0.63328,-1.9827 -1.79351,-2.5574 -0.85202,-0.436 -1.8781,-0.683 -3.07458,-0.7425 -0.31951,-0.015 -0.6338,-0.018 -0.94509,-0.013 z m -87.65049,0.2164 c -0.52574,-0.02 -1.00554,0.02 -1.44061,0.119 -1.86725,0.3568 -3.01053,0.9208 -3.42749,1.6937 -4.45961,8.2626 -6.55164,17.4166 -6.27972,27.4626 0.10882,0.2378 0.27919,0.3658 0.51486,0.3856 2.82803,0.3568 5.43008,-0.6129 7.80492,-2.9113 1.59529,-1.5653 3.29937,-4.0435 5.11223,-7.4317 0.18128,-0.3369 0.39037,-0.7331 0.62604,-1.1888 -0.19943,1.0303 -1.06959,5.0421 -2.61051,12.0365 -0.14504,0.7332 0.63328,0.9313 2.33736,0.5944 0.79766,-0.1584 1.53126,-0.4148 2.20201,-0.7715 0.74328,-0.3765 1.14452,-0.6935 1.1989,-0.9511 2.93682,-13.4737 4.57683,-22.9449 4.92127,-28.4135 0.0362,-0.5352 -0.8617,-0.5841 -2.69268,-0.1481 -1.84909,0.4359 -2.87277,0.9602 -3.07217,1.5745 -0.77953,2.3183 -3.30905,7.7659 -7.58738,16.3456 -0.97893,2.0012 -1.93855,3.7569 -2.88122,5.2626 0.3807,-8.421 2.42801,-16.0812 6.14436,-22.9767 0.23567,-0.4161 -0.0544,-0.642 -0.87017,-0.6815 z m 17.64747,0.1481 c -0.58012,-0.02 -1.25812,0.069 -2.03763,0.2668 -1.93977,0.4954 -2.87398,1.1294 -2.80147,1.9022 0.14503,1.4463 -0.52694,5.4793 -2.01347,12.0974 -0.25379,1.1491 -0.5076,2.515 -0.76139,4.1001 -0.96081,3.1704 -1.58564,6.618 -1.8757,10.3432 l -0.0266,0.2985 c -0.0363,0.5151 0.87016,0.5733 2.71927,0.177 1.86723,-0.3963 2.89088,-0.9299 3.07216,-1.6037 0.38069,-1.5257 0.98861,-4.9033 1.82251,-10.1345 1.35964,-4.4382 3.32598,-8.3219 5.90023,-11.6508 0.10883,0.6539 0.081,1.4466 -0.0822,2.3779 -0.23567,1.4464 -0.79644,3.0804 -1.68474,4.9034 -0.72513,1.5256 -1.40555,2.5864 -2.04006,3.1807 -0.43508,0.4161 -0.39036,0.7121 0.13536,0.8904 0.36257,0.119 0.76986,0.1585 1.22307,0.119 1.72222,-0.1782 3.02747,-0.6842 3.91577,-1.5164 0.83389,-0.7926 1.70407,-2.128 2.61049,-4.0104 0.90643,-1.8824 1.48653,-3.7569 1.74034,-5.6194 0.25379,-1.9617 -0.1982,-3.3182 -1.35843,-4.0713 -0.81578,-0.515 -2.11258,-0.5455 -3.88917,-0.089 -1.30525,0.3367 -2.50173,0.9616 -3.58944,1.8731 l -0.0266,0.029 -0.0266,0.032 c 0.14503,-1.2286 0.16195,-2.3686 0.0533,-3.4188 -0.0362,-0.2773 -0.36256,-0.4358 -0.97893,-0.4754 z m 42.23018,2.2588 c 0.54385,0.4953 0.76985,1.6446 0.67922,3.4476 -0.018,0.3172 0.53418,0.4268 1.65813,0.3276 -0.29004,1.5655 -0.72513,3.6539 -1.30524,6.2693 -0.97894,2.5759 -2.6806,5.6577 -5.10982,9.2441 -1.2146,1.8032 -1.98688,2.9127 -2.31318,3.3288 -0.10883,-0.2576 -0.20667,-0.5046 -0.29731,-0.7423 -0.58012,-1.7835 -0.67196,-4.1821 -0.27314,-7.194 0.30819,-2.3579 0.99706,-4.9522 2.06664,-7.7857 0.39883,-1.0303 0.86171,-2.0699 1.38744,-3.1202 0.34444,-0.6538 0.74325,-1.2296 1.19648,-1.7251 0.43508,-0.4755 0.96806,-0.9814 1.60257,-1.5164 l 0.0556,-0.058 c 0.0362,-0.02 0.0894,-0.06 0.16195,-0.1191 0.10882,-0.08 0.26466,-0.189 0.46409,-0.3276 z m -78.50407,0.9801 c 1.16023,1.5655 1.79351,3.8056 1.90228,6.7184 0.14504,3.6261 -0.58011,7.449 -2.17542,11.4712 -0.70701,1.7635 -1.54092,3.3393 -2.50172,4.7263 -0.27193,0.3568 -0.5789,0.7226 -0.92336,1.0992 -0.34444,-0.4756 -0.60669,-1.189 -0.78799,-2.1401 -0.56197,-3.0514 -0.10144,-7.4806 1.38503,-13.2862 0.61638,-2.4371 1.33305,-4.6259 2.14883,-6.5677 0.30819,-0.7331 0.62603,-1.4068 0.95235,-2.0211 z"
       style="font-style:normal;font-weight:normal;font-size:45px;line-height:125%;font-family:sans-serif;letter-spacing:0px;word-spacing:0px;fill:#ff823a;fill-opacity:1;stroke:none;stroke-width:1px;stroke-linecap:butt;stroke-linejoin:miter;stroke-opacity:1" />
  </g>
</svg>
